# xmcd
#
# Track frame offsets: 
#        150
#        13502
#        27520
#        41950
#        56057
#        69460
#        83040
#        96345
#        108622
#        120590
#        135295
#        146892
#        162950
#        180770
#
# Disc length: 2578 seconds
#
# Revision: 0
# Processed by: cddbd v1.5.2PL0 Copyright (c) Steve Scherf et al.
# Submitted via: ExactAudioCopy v0.99pb5
#
DISCID=bd0a100e
DTITLE=Various Artist - Music Dreamer vol.4
DYEAR=1900
DGENRE=Country
TTITLE0=Windflowers
TTITLE1=Green Green Grass of Home
TTITLE2=The Sound of Silence
TTITLE3=Scarborough Fair
TTITLE4=Rhinestone Cowboy
TTITLE5=Heart of Gold
TTITLE6=Let Me Be There
TTITLE7=Laughter in The Rain
TTITLE8=El Condor Pasa
TTITLE9=Longer
TTITLE10=If
TTITLE11=Crying
TTITLE12=Honey
TTITLE13=In the Summer Time
EXTD=
EXTT0=
EXTT1=
EXTT2=
EXTT3=
EXTT4=
EXTT5=
EXTT6=
EXTT7=
EXTT8=
EXTT9=
EXTT10=
EXTT11=
EXTT12=
EXTT13=
PLAYORDER=
